<?xml version="1.0" encoding="iso-8859-1"?>
<!-- Uploaded to: SVG Repo, www.svgrepo.com, Generator: SVG Repo Mixer Tools -->
<!DOCTYPE svg PUBLIC "-//W3C//DTD SVG 1.1//EN" "http://www.w3.org/Graphics/SVG/1.1/DTD/svg11.dtd">
<svg fill="#000000" height="800px" width="800px" version="1.1" id="Capa_1" xmlns="http://www.w3.org/2000/svg" xmlns:xlink="http://www.w3.org/1999/xlink" 
	 viewBox="0 0 578.621 578.621" xml:space="preserve">
<g>
	<path d="M570.055,243.665c-10.816-14.106-29.383-19.731-46.209-13.994l-0.527,0.18L495.051,87.822
		c-0.392-1.974-1.421-3.766-2.928-5.1l-43.01-38.095c-2.616-2.318-6.321-2.955-9.56-1.648c-3.241,1.308-5.464,4.337-5.739,7.821
		l-3.293,41.717L213.715,210.557c-2.965,1.614-4.81,4.719-4.81,8.094v66.973h-39.767c-4.603,0-8.501,3.397-9.13,7.957l-8.903,64.546
		H18.276c-4.617,0-8.522,3.416-9.135,7.992l-9.059,67.587c-0.353,2.635,0.449,5.293,2.198,7.293s4.278,3.148,6.936,3.148h102.609
		v6.144H65.129c-23.715,0-43.01,19.294-43.01,43.01s19.294,43.01,43.01,43.01h277.721c23.715,0,43.01-19.294,43.01-43.01
		s-19.294-43.01-43.01-43.01H218.736v-6.144h81.719c2.658,0,5.187-1.147,6.936-3.148c1.75-2,2.551-4.659,2.199-7.293l-18.775-140.09
		c-0.613-4.576-4.518-7.992-9.135-7.992h-9.669l6.138-36.829l166.381-105.983l78.777,186.867l-7.929,11.554
		c-2.88,4.197-1.813,9.934,2.383,12.814c1.595,1.093,3.411,1.618,5.207,1.618c2.935,0,5.821-1.399,7.607-4.002l40.756-59.388
		C581.501,277.461,580.987,257.926,570.055,243.665z M450.734,70.687l26.844,23.776l28.14,141.387l-5.633,1.92l-42.23-111.852
		l-9.209-28.779L450.734,70.687z M367.428,493.3c0,13.552-11.025,24.577-24.577,24.577H65.129
		c-13.552,0-24.577-11.026-24.577-24.577c0-13.552,11.025-24.577,24.577-24.577h277.721
		C356.403,468.723,367.428,479.749,367.428,493.3z M200.304,450.29h-70.045v-6.144h70.045V450.29z M19.751,425.713l6.588-49.154
		h132.798c4.603,0,8.501-3.397,9.13-7.957l8.903-64.546h8.387v52.674c0,22.833,15.513,42.478,37.724,47.772l65.903,15.71l0.737,5.5
		H19.751z M286.561,400.639l-59.005-14.066c-13.875-3.307-23.565-15.579-23.565-29.842v-52.674h69.627L286.561,400.639z
		 M264.782,235.455c-2.204,1.405-3.709,3.679-4.14,6.258l-7.319,43.911h-25.985v-61.497l206.597-112.48l4.269,13.341
		L264.782,235.455z M556.135,281.845l-20.823,30.342l-27.856-57.454l22.337-7.615c9.336-3.182,19.634-0.061,25.633,7.763
		C561.49,262.791,561.776,273.627,556.135,281.845z"/>
	<path d="M62.469,485.626c-3.344,2.201-4.865,6.514-3.698,10.332c1.13,3.695,4.509,6.325,8.363,6.529
		c3.684,0.195,7.198-1.949,8.778-5.266c1.768-3.711,0.785-8.308-2.362-10.962C70.433,483.629,65.863,483.386,62.469,485.626
		C61.965,485.958,62.972,485.294,62.469,485.626z"/>
	<path d="M331.882,496.86c2.531,5.976,10.382,7.516,15.029,2.998c5.135-5.29,2.258-14.468-5.094-15.625
		C334.884,483.144,329.138,490.339,331.882,496.86C332.116,497.413,331.649,496.307,331.882,496.86z"/>
	<path d="M95.236,502.517h217.507c5.091,0,9.216-4.126,9.216-9.216c0-5.09-4.126-9.216-9.216-9.216H95.236
		c-5.091,0-9.216,4.126-9.216,9.216C86.02,498.39,90.146,502.517,95.236,502.517z"/>
	<path d="M79.999,392.534H43.134c-5.091,0-9.216,4.126-9.216,9.216s4.126,9.216,9.216,9.216h36.866c5.091,0,9.216-4.126,9.216-9.216
		S85.09,392.534,79.999,392.534z"/>
</g>
</svg>